<svg width="114" height="156" viewBox="0 0 114 156" fill="none" xmlns="http://www.w3.org/2000/svg">
<g id="Group">
<path id="Vector" d="M113.031 154.598L0.610352 154.257L1.07295 1.45459L78.8092 1.69047L113.389 36.4983L113.031 154.598Z" fill="white"/>
<path id="Vector_2" d="M78.8091 1.69092L78.7041 36.3937L113.389 36.4987L78.8091 1.69092Z" fill="#CAE4D3"/>
<path id="Vector_3" d="M113.908 36.467C113.905 36.4212 113.896 36.376 113.881 36.3325C113.876 36.3152 113.871 36.2989 113.864 36.2799C113.839 36.223 113.805 36.1708 113.762 36.126L79.1821 1.31822C79.1375 1.2743 79.0854 1.23872 79.0283 1.21315C79.012 1.20579 78.9962 1.20159 78.9794 1.19581C78.9354 1.18056 78.8895 1.1712 78.8429 1.16797C78.8319 1.16797 78.8219 1.16166 78.8109 1.16166L1.07458 0.925781C0.935318 0.925781 0.801769 0.98113 0.703298 1.07965C0.604827 1.17818 0.549499 1.3118 0.549499 1.45113L0.0869141 154.253C0.0869141 154.393 0.142226 154.526 0.240698 154.625C0.339169 154.723 0.472733 154.779 0.611993 154.779L113.031 155.12C113.171 155.12 113.304 155.064 113.403 154.966C113.501 154.867 113.556 154.734 113.556 154.594L113.914 36.4948C113.914 36.4885 113.908 36.4785 113.908 36.467ZM79.3297 2.96047L112.122 35.9695L79.2299 35.8697L79.3297 2.96047ZM1.13707 153.733L1.59652 1.98174L78.2827 2.21447L78.1776 36.3919C78.1776 36.5312 78.233 36.6648 78.3314 36.7633C78.4299 36.8619 78.5635 36.9172 78.7027 36.9172L112.862 37.0223L112.508 154.071L1.13707 153.733Z" fill="#353535"/>
</g>
</svg>
